# xmcd
#
# Track frame offsets: 
#        150
#        16357
#        39803
#        50201
#        65088
#        82759
#        96447
#        110917
#        121562
#        137030
#
# Disc length: 1955 seconds
#
# Revision: 0
# Processed by: cddbd v1.5.2PL0 Copyright (c) Steve Scherf et al.
# Submitted via: ExactAudioCopy v1.0b4
#
DISCID=8307a10a
DTITLE=Big Chico - Feel The Blues
DYEAR=2016
DGENRE=Blues
TTITLE0=Every Day I Have The Blues
TTITLE1=I'm A Lonely Man
TTITLE2=Deep Shuffle
TTITLE3=Trouble In My Way
TTITLE4=Greasy Gravy
TTITLE5=I Need So Bad
TTITLE6=Search Me Lord
TTITLE7=God Can Use You
TTITLE8=Done Got Old
TTITLE9=Blues For Little Walter
EXTD=
EXTT0=
EXTT1=
EXTT2=
EXTT3=
EXTT4=
EXTT5=
EXTT6=
EXTT7=
EXTT8=
EXTT9=
PLAYORDER=
